<svg width="54" height="49" fill="none" xmlns="http://www.w3.org/2000/svg"><path d="M40 .105c-5.8 0-10.922 3.86-13 9.398C24.922 3.965 19.8.105 14 .105 6.28.105 0 6.779 0 14.982c0 16.019 13.418 26.765 21.417 31.745A10.545 10.545 0 0 0 27 48.335c1.931 0 3.861-.536 5.583-1.608C40.582 41.747 54 31.001 54 14.982 54 6.779 47.72.105 40 .105ZM31.526 45.03a8.513 8.513 0 0 1-9.052 0C14.828 40.269 2 30.034 2 14.982 2 7.881 7.383 2.105 14 2.105c5.917 0 11.017 4.741 11.861 11.027l.117.868h2.044l.117-.867C28.983 6.847 34.083 2.105 40 2.105c6.617 0 12 5.776 12 12.877 0 15.052-12.828 25.287-20.474 30.048Z" fill="#216E7A"/></svg>