<svg width="52" height="44" fill="none" xmlns="http://www.w3.org/2000/svg"><path d="M49 3h-4c-1.654 0-3 1.343-3 2.997V8H31.209L13.627.343c-1.95-.848-4.3-.053-5.231 1.778a3.557 3.557 0 0 0-.187 2.835c.351.984 1.092 1.769 2.087 2.206L12.198 8H4c-2.206 0-4 1.794-4 4s1.794 4 4 4h16.178C16.515 19 14 22.365 14 26.999c0 2.498.713 4.914 2.057 7.009a8.983 8.983 0 0 0-.057.99c0 4.963 4.037 9 9 9a8.968 8.968 0 0 0 8.346-5.625l-.04-.016C37.293 36.133 40 31.877 40 26.997V25h2.185c.414 1 1.514 2 2.815 2h4c1.654 0 3-1.348 3-3.003v-18A3.001 3.001 0 0 0 49 3ZM11.102 5.332c-.486-.214-.845-.587-1.009-1.047a1.581 1.581 0 0 1 .084-1.256c.463-.906 1.651-1.286 2.651-.851L26.198 8h-9.035l-6.061-2.668ZM2 12c0-1.103.897-2 2-2h.556C4.212 11 4 11.268 4 12s.212 2 .556 2H4c-1.103 0-2-.897-2-2Zm23 29.997c-3.859 0-7-3.141-7-7 0-3.86 3.141-7 7-7 2.126 0 4.123.983 5.441 2.61A4.973 4.973 0 0 1 27 31.998c-2.206 0-4 1.794-4 4s1.794 4 4 4c1.144 0 2.248-.163 3.306-.442A6.966 6.966 0 0 1 25 41.997Zm6.613-13.077c-1.688-1.83-4.076-2.923-6.613-2.923a8.934 8.934 0 0 0-2.95.507c.252-2.523 2.362-4.507 4.95-4.507 2.757 0 5 2.243 5 5 0 .682-.139 1.33-.387 1.923ZM38 23v3.997c0 6.065-4.935 11-11 11-1.103 0-2-.897-2-2s.897-2 2-2c3.859 0 7-3.141 7-7 0-3.86-3.141-7-7-7s-7 3.14-7 7c0 .2-.035.398-.094.588a9.053 9.053 0 0 0-3.061 3.629A10.977 10.977 0 0 1 16 26.997c0-6.065 5-11 11-11V14H8c-1.103 0-2-.897-2-2s.897-2 2-2h34v13h-4Zm12 .997c0 .552-.448 1.003-1 1.003h-1v-6h-2v6h-1c-.552 0-1-.451-1-1.003v-18A.998.998 0 0 1 45 5h4c.552 0 1 .446 1 .997v18Z" fill="#216E7A"/></svg>